<svg width="26" height="20" viewBox="0 0 26 20" fill="none" xmlns="http://www.w3.org/2000/svg">
<path d="M0.744247 9.99141L7.79997 8.74844L4.09173 11.4316C3.68224 11.8254 3.9723 12.4984 4.5512 12.4984H13.5984C13.2149 11.4672 12.9999 10.3707 12.9999 9.24141V7.59023L8.13594 4.16836C7.16825 3.54805 5.88979 3.62109 5.00539 4.34766L0.23603 8.89219C-0.266905 9.2957 0.0958746 10.0805 0.744247 9.99141ZM23.367 11.3234L19.2777 9.3582C18.9539 9.20253 18.6815 8.96323 18.4912 8.66711C18.3008 8.371 18.2 8.02976 18.1999 7.68164V6.24844H20.7999L21.9411 7.13242C22.1848 7.3668 22.5155 7.49844 22.8604 7.49844H24.1186C24.36 7.49842 24.5966 7.43377 24.802 7.31172C25.0073 7.18967 25.1733 7.01505 25.2812 6.80742L25.8626 5.68945C25.9706 5.48183 26.0163 5.2494 25.9946 5.01821C25.9729 4.78701 25.8847 4.56618 25.7399 4.38047L22.7121 0.498438C22.4663 0.183594 22.0812 0 21.6721 0H12.0258C11.7361 0 11.5911 0.334766 11.7958 0.531641L14.2999 2.49844L11.8795 3.46875C11.6398 3.58398 11.6398 3.9125 11.8795 4.02773L14.2999 4.99844V9.24141C14.2999 12.057 15.7637 14.6863 18.1999 16.2484C10.2541 16.5145 4.20223 17.8504 0.564685 18.6277C0.234812 18.698 0 18.9797 0 19.3047C0 19.6875 0.322967 20 0.721497 20H20.9965C23.5677 20.0004 25.8557 18.1422 25.993 15.6734C26.0954 13.8266 25.0696 12.1422 23.367 11.3234ZM19.8729 2.58789L21.7274 3.03359C21.6157 3.45977 21.2208 3.77148 20.7471 3.74687C20.2206 3.71914 19.697 3.25742 19.8729 2.58789Z" fill="white"/>
</svg>
