<svg width="30" height="31" viewBox="0 0 30 31" fill="none" xmlns="http://www.w3.org/2000/svg">
<path d="M27.073 12.5734C27.073 12.3332 27.0257 12.0953 26.9337 11.8734C26.8418 11.6514 26.7071 11.4498 26.5372 11.2799C26.3673 11.11 26.1657 10.9753 25.9438 10.8834C25.7218 10.7914 25.484 10.7441 25.2437 10.7441C25.0035 10.7441 24.7657 10.7914 24.5437 10.8834C24.3218 10.9753 24.1201 11.11 23.9503 11.2799C23.7804 11.4498 23.6457 11.6514 23.5537 11.8734C23.4618 12.0953 23.4145 12.3332 23.4145 12.5734H27.073ZM6.5855 12.5734C6.5855 12.0882 6.39278 11.623 6.04973 11.2799C5.70668 10.9369 5.24141 10.7441 4.75626 10.7441C4.27112 10.7441 3.80584 10.9369 3.4628 11.2799C3.11975 11.623 2.92702 12.0882 2.92702 12.5734H6.5855ZM26.8769 16.7938C27.22 17.1369 27.6853 17.3297 28.1705 17.3297C28.6557 17.3297 29.1211 17.1369 29.4642 16.7938C29.8073 16.4507 30 15.9854 30 15.5002C30 15.015 29.8073 14.5496 29.4642 14.2065L26.8769 16.7938ZM15 2.32959L16.2936 1.03594C16.1238 0.866032 15.9221 0.731248 15.7001 0.639289C15.4782 0.547331 15.2403 0.5 15 0.5C14.7597 0.5 14.5218 0.547331 14.2999 0.639289C14.0779 0.731248 13.8762 0.866032 13.7064 1.03594L15 2.32959ZM0.535842 14.2065C0.192748 14.5496 0 15.015 0 15.5002C0 15.9854 0.192748 16.4507 0.535842 16.7938C0.878936 17.1369 1.34427 17.3297 1.82948 17.3297C2.31469 17.3297 2.78002 17.1369 3.12312 16.7938L0.535842 14.2065ZM7.68305 30.5H22.317V26.8415H7.68305V30.5ZM27.073 25.744V12.5734H23.4145V25.744H27.073ZM6.5855 25.744V12.5734H2.92702V25.744H6.5855ZM29.4642 14.2065L16.2936 1.03594L13.7064 3.62323L26.8769 16.7938L29.4642 14.2065ZM13.7064 1.03594L0.535842 14.2065L3.12312 16.7938L16.2936 3.62323L13.7064 1.03594ZM22.317 30.5C23.5783 30.5 24.788 29.9989 25.68 29.107C26.5719 28.2151 27.073 27.0053 27.073 25.744H23.4145C23.4145 26.035 23.2989 26.3142 23.093 26.52C22.8872 26.7259 22.608 26.8415 22.317 26.8415V30.5ZM7.68305 26.8415C7.39196 26.8415 7.11279 26.7259 6.90696 26.52C6.70113 26.3142 6.5855 26.035 6.5855 25.744H2.92702C2.92702 27.0053 3.4281 28.2151 4.32003 29.107C5.21196 29.9989 6.42167 30.5 7.68305 30.5V26.8415Z" fill="white"/>
</svg>
